<mxfile host="app.diagrams.net" modified="2022-11-09T06:21:23.064Z" agent="5.0 (Windows NT 10.0; Win64; x64) AppleWebKit/537.36 (KHTML, like Gecko) Chrome/105.0.0.0 Safari/537.36" etag="iqE78fEweq9EKcpJ1rHx" version="20.4.0" type="github">
  <diagram id="aS_K7l8yTv8GTi2jXWwr" name="第 1 页">
    <mxGraphModel dx="981" dy="548" grid="1" gridSize="10" guides="1" tooltips="1" connect="1" arrows="1" fold="1" page="1" pageScale="1" pageWidth="827" pageHeight="1169" math="0" shadow="0">
      <root>
        <mxCell id="0" />
        <mxCell id="1" parent="0" />
        <mxCell id="E-5vWzw6Vq03EfvZsvZ7-17" style="edgeStyle=orthogonalEdgeStyle;rounded=0;orthogonalLoop=1;jettySize=auto;html=1;exitX=0.5;exitY=1;exitDx=0;exitDy=0;entryX=0.5;entryY=0;entryDx=0;entryDy=0;" edge="1" parent="1" source="E-5vWzw6Vq03EfvZsvZ7-1" target="E-5vWzw6Vq03EfvZsvZ7-3">
          <mxGeometry relative="1" as="geometry" />
        </mxCell>
        <mxCell id="E-5vWzw6Vq03EfvZsvZ7-18" style="edgeStyle=orthogonalEdgeStyle;rounded=0;orthogonalLoop=1;jettySize=auto;html=1;exitX=0.5;exitY=1;exitDx=0;exitDy=0;" edge="1" parent="1" source="E-5vWzw6Vq03EfvZsvZ7-1" target="E-5vWzw6Vq03EfvZsvZ7-11">
          <mxGeometry relative="1" as="geometry" />
        </mxCell>
        <mxCell id="E-5vWzw6Vq03EfvZsvZ7-1" value="" style="swimlane;startSize=0;" vertex="1" parent="1">
          <mxGeometry x="314" y="200" width="200" height="50" as="geometry" />
        </mxCell>
        <mxCell id="E-5vWzw6Vq03EfvZsvZ7-2" value="Group Master Key&lt;br&gt;128 bit" style="text;html=1;align=center;verticalAlign=middle;resizable=0;points=[];autosize=1;strokeColor=none;fillColor=none;" vertex="1" parent="E-5vWzw6Vq03EfvZsvZ7-1">
          <mxGeometry x="40" y="5" width="120" height="40" as="geometry" />
        </mxCell>
        <mxCell id="E-5vWzw6Vq03EfvZsvZ7-3" value="TKIP Group Transient Key GTK&#xa;256 bit" style="swimlane;startSize=40;" vertex="1" parent="1">
          <mxGeometry x="135" y="300" width="230" height="100" as="geometry" />
        </mxCell>
        <mxCell id="E-5vWzw6Vq03EfvZsvZ7-5" value="Group MIC Key&lt;br&gt;128" style="text;html=1;align=center;verticalAlign=middle;resizable=0;points=[];autosize=1;strokeColor=none;fillColor=none;" vertex="1" parent="E-5vWzw6Vq03EfvZsvZ7-3">
          <mxGeometry x="120" y="50" width="110" height="40" as="geometry" />
        </mxCell>
        <mxCell id="E-5vWzw6Vq03EfvZsvZ7-4" value="Group Temporal&amp;nbsp;Key&lt;br&gt;128" style="text;html=1;align=center;verticalAlign=middle;resizable=0;points=[];autosize=1;strokeColor=none;fillColor=none;" vertex="1" parent="E-5vWzw6Vq03EfvZsvZ7-3">
          <mxGeometry x="-7" y="50" width="130" height="40" as="geometry" />
        </mxCell>
        <mxCell id="E-5vWzw6Vq03EfvZsvZ7-10" style="edgeStyle=none;shape=link;rounded=0;orthogonalLoop=1;jettySize=auto;html=1;" edge="1" parent="E-5vWzw6Vq03EfvZsvZ7-3">
          <mxGeometry relative="1" as="geometry">
            <mxPoint x="119.87" y="96" as="targetPoint" />
            <mxPoint x="119.87" y="46" as="sourcePoint" />
          </mxGeometry>
        </mxCell>
        <mxCell id="E-5vWzw6Vq03EfvZsvZ7-11" value="CCMP Group Transient Key GTK&#xa;128 bit" style="swimlane;startSize=40;" vertex="1" parent="1">
          <mxGeometry x="435" y="300" width="230" height="100" as="geometry" />
        </mxCell>
        <mxCell id="E-5vWzw6Vq03EfvZsvZ7-13" value="Group Temporal&amp;nbsp;Key&lt;br&gt;128" style="text;html=1;align=center;verticalAlign=middle;resizable=0;points=[];autosize=1;strokeColor=none;fillColor=none;" vertex="1" parent="E-5vWzw6Vq03EfvZsvZ7-11">
          <mxGeometry x="60" y="50" width="130" height="40" as="geometry" />
        </mxCell>
        <mxCell id="E-5vWzw6Vq03EfvZsvZ7-19" value="PRF Expansion(authenticator address and nonce)" style="text;html=1;align=center;verticalAlign=middle;resizable=0;points=[];autosize=1;strokeColor=none;fillColor=none;" vertex="1" parent="1">
          <mxGeometry x="314" y="247" width="290" height="30" as="geometry" />
        </mxCell>
      </root>
    </mxGraphModel>
  </diagram>
</mxfile>
